<mxfile host="app.diagrams.net" modified="2024-06-21T13:51:15.991Z" agent="Mozilla/5.0 (Windows NT 10.0; Win64; x64) AppleWebKit/537.36 (KHTML, like Gecko) Chrome/121.0.0.0 Safari/537.36" etag="2mlhJ6JgXbOiywViWWib" version="24.6.0" type="device">
  <diagram id="C5RBs43oDa-KdzZeNtuy" name="DIGRAMA DE CLASSES">
    <mxGraphModel dx="712" dy="772" grid="1" gridSize="10" guides="1" tooltips="1" connect="1" arrows="1" fold="1" page="1" pageScale="1" pageWidth="827" pageHeight="1169" math="0" shadow="0">
      <root>
        <mxCell id="WIyWlLk6GJQsqaUBKTNV-0" />
        <mxCell id="WIyWlLk6GJQsqaUBKTNV-1" parent="WIyWlLk6GJQsqaUBKTNV-0" />
        <mxCell id="zkfFHV4jXpPFQw0GAbJ--0" value="Cliente " style="swimlane;fontStyle=2;align=center;verticalAlign=top;childLayout=stackLayout;horizontal=1;startSize=26;horizontalStack=0;resizeParent=1;resizeLast=0;collapsible=1;marginBottom=0;rounded=0;shadow=0;strokeWidth=1;" parent="WIyWlLk6GJQsqaUBKTNV-1" vertex="1">
          <mxGeometry x="40" y="80" width="160" height="320" as="geometry">
            <mxRectangle x="230" y="140" width="160" height="26" as="alternateBounds" />
          </mxGeometry>
        </mxCell>
        <mxCell id="zkfFHV4jXpPFQw0GAbJ--1" value="- ID&#xa;- nome&#xa;- data de nascimento&#xa;- cpf&#xa;- endereço&#xa;- telefone &#xa;-&#xa;-" style="text;align=left;verticalAlign=top;spacingLeft=4;spacingRight=4;overflow=hidden;rotatable=0;points=[[0,0.5],[1,0.5]];portConstraint=eastwest;" parent="zkfFHV4jXpPFQw0GAbJ--0" vertex="1">
          <mxGeometry y="26" width="160" height="94" as="geometry" />
        </mxCell>
        <mxCell id="zkfFHV4jXpPFQw0GAbJ--4" value="" style="line;html=1;strokeWidth=1;align=left;verticalAlign=middle;spacingTop=-1;spacingLeft=3;spacingRight=3;rotatable=0;labelPosition=right;points=[];portConstraint=eastwest;" parent="zkfFHV4jXpPFQw0GAbJ--0" vertex="1">
          <mxGeometry y="120" width="160" height="8" as="geometry" />
        </mxCell>
        <mxCell id="zkfFHV4jXpPFQw0GAbJ--5" value="+ SetID &#xa;+ GetID&#xa;+ Setnome&#xa;+ Getnome&#xa;+ Setdatadenascimento &#xa;+ Getdatadenascimento&#xa;+ Setcpf&#xa;+ Getcpf&#xa;+ Setendereço&#xa;+ Getendereço&#xa;+ Settelefone&#xa;+Gettelefone" style="text;align=left;verticalAlign=top;spacingLeft=4;spacingRight=4;overflow=hidden;rotatable=0;points=[[0,0.5],[1,0.5]];portConstraint=eastwest;" parent="zkfFHV4jXpPFQw0GAbJ--0" vertex="1">
          <mxGeometry y="128" width="160" height="192" as="geometry" />
        </mxCell>
        <mxCell id="ldOpB9GHvph8RPzyLofs-0" value="Transportadora" style="swimlane;fontStyle=2;align=center;verticalAlign=top;childLayout=stackLayout;horizontal=1;startSize=26;horizontalStack=0;resizeParent=1;resizeLast=0;collapsible=1;marginBottom=0;rounded=0;shadow=0;strokeWidth=1;" parent="WIyWlLk6GJQsqaUBKTNV-1" vertex="1">
          <mxGeometry x="240" y="480" width="160" height="340" as="geometry">
            <mxRectangle x="230" y="140" width="160" height="26" as="alternateBounds" />
          </mxGeometry>
        </mxCell>
        <mxCell id="ldOpB9GHvph8RPzyLofs-1" value="- ID&#xa;- nome da transportadora&#xa;- telefone&#xa;- cpf&#xa;- endereço&#xa;- telefone &#xa;-&#xa;-" style="text;align=left;verticalAlign=top;spacingLeft=4;spacingRight=4;overflow=hidden;rotatable=0;points=[[0,0.5],[1,0.5]];portConstraint=eastwest;" parent="ldOpB9GHvph8RPzyLofs-0" vertex="1">
          <mxGeometry y="26" width="160" height="114" as="geometry" />
        </mxCell>
        <mxCell id="ldOpB9GHvph8RPzyLofs-2" value="" style="line;html=1;strokeWidth=1;align=left;verticalAlign=middle;spacingTop=-1;spacingLeft=3;spacingRight=3;rotatable=0;labelPosition=right;points=[];portConstraint=eastwest;" parent="ldOpB9GHvph8RPzyLofs-0" vertex="1">
          <mxGeometry y="140" width="160" height="8" as="geometry" />
        </mxCell>
        <mxCell id="ldOpB9GHvph8RPzyLofs-3" value="+ SetID &#xa;+ GetID&#xa;+ Setnome&#xa;+ Getnome&#xa;+ Setdatadenascimento &#xa;+ Getdatadenascimento&#xa;+ Setcpf&#xa;+ Getcpf&#xa;+ Setendereço&#xa;+ Getendereço&#xa;+ Settelefone&#xa;+Gettelefone" style="text;align=left;verticalAlign=top;spacingLeft=4;spacingRight=4;overflow=hidden;rotatable=0;points=[[0,0.5],[1,0.5]];portConstraint=eastwest;" parent="ldOpB9GHvph8RPzyLofs-0" vertex="1">
          <mxGeometry y="148" width="160" height="192" as="geometry" />
        </mxCell>
        <mxCell id="ldOpB9GHvph8RPzyLofs-4" value="Matéria Prima" style="swimlane;fontStyle=2;align=center;verticalAlign=top;childLayout=stackLayout;horizontal=1;startSize=26;horizontalStack=0;resizeParent=1;resizeLast=0;collapsible=1;marginBottom=0;rounded=0;shadow=0;strokeWidth=1;" parent="WIyWlLk6GJQsqaUBKTNV-1" vertex="1">
          <mxGeometry x="40" y="480" width="160" height="320" as="geometry">
            <mxRectangle x="230" y="140" width="160" height="26" as="alternateBounds" />
          </mxGeometry>
        </mxCell>
        <mxCell id="ldOpB9GHvph8RPzyLofs-5" value="- ID&#xa;- nome da matéria prima &#xa;- novo código&#xa;- unidade&#xa;- quantidade&#xa;- fornecedor &#xa;-&#xa;-" style="text;align=left;verticalAlign=top;spacingLeft=4;spacingRight=4;overflow=hidden;rotatable=0;points=[[0,0.5],[1,0.5]];portConstraint=eastwest;" parent="ldOpB9GHvph8RPzyLofs-4" vertex="1">
          <mxGeometry y="26" width="160" height="94" as="geometry" />
        </mxCell>
        <mxCell id="ldOpB9GHvph8RPzyLofs-6" value="" style="line;html=1;strokeWidth=1;align=left;verticalAlign=middle;spacingTop=-1;spacingLeft=3;spacingRight=3;rotatable=0;labelPosition=right;points=[];portConstraint=eastwest;" parent="ldOpB9GHvph8RPzyLofs-4" vertex="1">
          <mxGeometry y="120" width="160" height="8" as="geometry" />
        </mxCell>
        <mxCell id="ldOpB9GHvph8RPzyLofs-7" value="+ SetID &#xa;+ GetID&#xa;+ Setnomedamatériaprima&#xa;+ Getnomedamatériaprima&#xa;+ Setnovocódigo &#xa;+ Getnovocódigo&#xa;+ Setunidade&#xa;+ Getunidade&#xa;+ Setquantidade&#xa;+ Getquantidade&#xa;+ Setfornecedor &#xa;+Getfornecedor" style="text;align=left;verticalAlign=top;spacingLeft=4;spacingRight=4;overflow=hidden;rotatable=0;points=[[0,0.5],[1,0.5]];portConstraint=eastwest;" parent="ldOpB9GHvph8RPzyLofs-4" vertex="1">
          <mxGeometry y="128" width="160" height="192" as="geometry" />
        </mxCell>
        <mxCell id="ldOpB9GHvph8RPzyLofs-8" value="FORNECEDOR" style="swimlane;fontStyle=2;align=center;verticalAlign=top;childLayout=stackLayout;horizontal=1;startSize=26;horizontalStack=0;resizeParent=1;resizeLast=0;collapsible=1;marginBottom=0;rounded=0;shadow=0;strokeWidth=1;" parent="WIyWlLk6GJQsqaUBKTNV-1" vertex="1">
          <mxGeometry x="440" y="80" width="160" height="350" as="geometry">
            <mxRectangle x="230" y="140" width="160" height="26" as="alternateBounds" />
          </mxGeometry>
        </mxCell>
        <mxCell id="ldOpB9GHvph8RPzyLofs-9" value="- ID&#xa;- nome do fornecedor&#xa;- telefone&#xa;- e-mail&#xa;- tipo do fornecimento &#xa;- quantidade&#xa;- cnpj&#xa;" style="text;align=left;verticalAlign=top;spacingLeft=4;spacingRight=4;overflow=hidden;rotatable=0;points=[[0,0.5],[1,0.5]];portConstraint=eastwest;" parent="ldOpB9GHvph8RPzyLofs-8" vertex="1">
          <mxGeometry y="26" width="160" height="114" as="geometry" />
        </mxCell>
        <mxCell id="ldOpB9GHvph8RPzyLofs-10" value="" style="line;html=1;strokeWidth=1;align=left;verticalAlign=middle;spacingTop=-1;spacingLeft=3;spacingRight=3;rotatable=0;labelPosition=right;points=[];portConstraint=eastwest;" parent="ldOpB9GHvph8RPzyLofs-8" vertex="1">
          <mxGeometry y="140" width="160" height="8" as="geometry" />
        </mxCell>
        <mxCell id="ldOpB9GHvph8RPzyLofs-11" value="+ SetID &#xa;+ GetID&#xa;+ Setnomedofornecedor&#xa;+ Getnomedofornecedor&#xa;+ Settelefone&#xa;+ Gettelefone&#xa;+ Sete-mail&#xa;+ Gete-mail&#xa;+ Settipodofornecimento&#xa;+ Gettipodofornecimento&#xa;+ Setquantidade&#xa;+ Gettquantidade&#xa;+ Setcnpj&#xa;+ Getcnpj&#xa;&#xa;" style="text;align=left;verticalAlign=top;spacingLeft=4;spacingRight=4;overflow=hidden;rotatable=0;points=[[0,0.5],[1,0.5]];portConstraint=eastwest;" parent="ldOpB9GHvph8RPzyLofs-8" vertex="1">
          <mxGeometry y="148" width="160" height="202" as="geometry" />
        </mxCell>
        <mxCell id="ldOpB9GHvph8RPzyLofs-12" value="Produto" style="swimlane;fontStyle=2;align=center;verticalAlign=top;childLayout=stackLayout;horizontal=1;startSize=26;horizontalStack=0;resizeParent=1;resizeLast=0;collapsible=1;marginBottom=0;rounded=0;shadow=0;strokeWidth=1;" parent="WIyWlLk6GJQsqaUBKTNV-1" vertex="1">
          <mxGeometry x="240" y="80" width="160" height="360" as="geometry">
            <mxRectangle x="230" y="140" width="160" height="26" as="alternateBounds" />
          </mxGeometry>
        </mxCell>
        <mxCell id="ldOpB9GHvph8RPzyLofs-13" value="- ID&#xa;- nome do produto&#xa;- custo&#xa;- valor&#xa;- fornecedor&#xa;- cor  &#xa;- quantidade" style="text;align=left;verticalAlign=top;spacingLeft=4;spacingRight=4;overflow=hidden;rotatable=0;points=[[0,0.5],[1,0.5]];portConstraint=eastwest;" parent="ldOpB9GHvph8RPzyLofs-12" vertex="1">
          <mxGeometry y="26" width="160" height="114" as="geometry" />
        </mxCell>
        <mxCell id="ldOpB9GHvph8RPzyLofs-14" value="" style="line;html=1;strokeWidth=1;align=left;verticalAlign=middle;spacingTop=-1;spacingLeft=3;spacingRight=3;rotatable=0;labelPosition=right;points=[];portConstraint=eastwest;" parent="ldOpB9GHvph8RPzyLofs-12" vertex="1">
          <mxGeometry y="140" width="160" height="8" as="geometry" />
        </mxCell>
        <mxCell id="ldOpB9GHvph8RPzyLofs-15" value="+ SetID &#xa;+ GetID&#xa;+ Setnomedoproduto&#xa;+ Getnomedoproduto&#xa;+ Setcusto &#xa;+ Getcusto&#xa;+ Setvalor&#xa;+ Getvalor&#xa;+ Setfornecedor&#xa;+ Getfornecedor&#xa;+ Setcor&#xa;+ Getcor&#xa;+ Setquantidade&#xa;+ Getquantidade" style="text;align=left;verticalAlign=top;spacingLeft=4;spacingRight=4;overflow=hidden;rotatable=0;points=[[0,0.5],[1,0.5]];portConstraint=eastwest;" parent="ldOpB9GHvph8RPzyLofs-12" vertex="1">
          <mxGeometry y="148" width="160" height="212" as="geometry" />
        </mxCell>
      </root>
    </mxGraphModel>
  </diagram>
</mxfile>
